<svg version="1.1" xmlns="http://www.w3.org/2000/svg" xmlns:xlink="http://www.w3.org/1999/xlink" width="47.40777" height="47.45338" viewBox="0,0,47.40777,47.45338"><g transform="translate(-216.29612,-156.27331)"><g data-paper-data="{&quot;isPaintingLayer&quot;:true}" fill-rule="nonzero" stroke="none" stroke-linecap="butt" stroke-linejoin="miter" stroke-miterlimit="10" stroke-dasharray="" stroke-dashoffset="0" style="mix-blend-mode: normal"><g><g data-paper-data="{&quot;index&quot;:null}"><path d="M255.70166,182.85132c0.23239,13.69537 -14.91584,17.28737 -14.91584,17.28737c-8.93177,0.15156 -16.22896,-3.0596 -16.46133,-16.75497c-0.02279,-1.34308 0.51457,-6.90633 0.51457,-6.90633l0.57439,-4.75635l5.91239,-1.64485l1.02686,-5.2108l5.3311,-2.35536l-0.1206,-5.62136c0,0 3.5962,-0.69968 4.14597,-0.60688c8.1743,1.37975 13.77478,13.7372 13.99252,26.56953z" fill="#000000" stroke-width="0"/><path d="M239.83557,203.72379c-8.93177,0.15156 -16.27235,-5.61678 -16.50473,-19.31215c-0.04389,-2.587 0.17084,-5.1628 0.60825,-7.64034c9.33734,-1.96421 16.5036,-9.71358 17.65367,-19.27022c7.7622,2.07847 13.87297,13.99182 14.08286,26.36173c0.23238,13.69536 -6.90829,19.70941 -15.84004,19.86096z" fill="#605c54" stroke-width="0"/><path d="M240.8292,202.69586c-8.93177,0.15156 -16.27235,-5.61678 -16.50473,-19.31215c-0.03901,-2.29926 0.12628,-4.58968 0.4706,-6.81012c9.30526,-2.3431 16.26843,-10.47919 16.91089,-20.29233c8.17579,1.37708 14.74551,13.71963 14.96328,26.55363c0.23238,13.69536 -6.90828,19.70942 -15.84004,19.86097z" fill="#f2e8d3" stroke-width="0"/><g fill="#f2ecdf"><path d="M247.90147,190.99384c1.51919,-3.34352 3.84958,-5.5547 5.20506,-4.93882c1.35548,0.61588 1.22276,3.82563 -0.29644,7.16914c-1.51919,3.34352 -3.84957,5.55471 -5.20505,4.93882c-1.35548,-0.61588 -1.22277,-3.82564 0.29643,-7.16915z" stroke-width="0"/><path d="M253.48202,185.67501c-1.24052,0.02104 -2.26322,-0.96753 -2.28427,-2.20805c-0.02104,-1.24053 0.96753,-2.26323 2.20805,-2.28428c1.24052,-0.02104 2.26324,0.96754 2.28428,2.20805c0.02104,1.24053 -0.96754,2.26323 -2.20806,2.28427z" stroke-width="0.5"/></g><path d="M241.4776,183.91962c-0.24164,1.56958 -1.58354,1.88037 -2.42675,0.54241c-1.73538,-2.75363 -3.09948,-4.95804 -4.32028,-7.37389c-0.55533,-1.09895 -1.00418,-1.82452 -1.29814,-1.86886c-1.24765,-0.18813 -1.11979,6.34999 -2.67204,6.5721c-1.35333,0.19365 -2.03566,-5.14377 -2.55316,-5.26339c-1.43418,-0.3315 -3.41179,0.06669 -3.41179,0.06669l2.98833,-0.96144l4.33802,-2.43091l6.13468,-6.26577l3.02267,-7.24109c0,0 1.30045,17.0665 0.19847,24.22415z" fill="#ffdc00" stroke-width="0"/></g></g><path d="M216.29612,203.46763v-46.93526h47.40777v46.93526z" fill="none" stroke-width="0"/></g></g></svg>