<svg version="1.1" xmlns="http://www.w3.org/2000/svg" xmlns:xlink="http://www.w3.org/1999/xlink" width="47.33552" height="47.03047" viewBox="0,0,47.33552,47.03047"><defs><linearGradient x1="218.57222" y1="198.47959" x2="234.25053" y2="177.68825" gradientUnits="userSpaceOnUse" id="color-1"><stop offset="0" stop-color="#ffaa33"/><stop offset="1" stop-color="#ff7300"/></linearGradient><linearGradient x1="261.45678" y1="191.53889" x2="244.18052" y2="170.25617" gradientUnits="userSpaceOnUse" id="color-2"><stop offset="0" stop-color="#02d2a9"/><stop offset="1" stop-color="#02d2a9"/></linearGradient></defs><g transform="translate(-216.42689,-156.53539)"><g data-paper-data="{&quot;isPaintingLayer&quot;:true}" fill-rule="nonzero" stroke-linecap="round" stroke-linejoin="miter" stroke-miterlimit="10" stroke-dasharray="" stroke-dashoffset="0" style="mix-blend-mode: normal"><g><g data-paper-data="{&quot;index&quot;:null}"><path d="M248.27438,186.03608c0,0 -11.43825,3.26312 -16.29437,5.46903c-4.61634,2.09696 -12.63143,7.17569 -12.63143,7.17569l1.06912,-28.97518z" data-paper-data="{&quot;index&quot;:null}" fill="url(#color-1)" stroke="none" stroke-width="6"/><path d="M248.43273,186.13482c0,0 -10.80233,2.89296 -15.67173,4.96329c-2.91846,1.24085 -7.21483,3.69096 -10.14992,5.43064c-1.91164,1.13306 -3.24586,1.9648 -3.24586,1.9648c0,0 0.03365,-0.9154 0.07106,-1.93105c0.13971,-3.79631 0.99289,-26.97947 0.99289,-26.97947z" data-paper-data="{&quot;index&quot;:null}" fill="none" stroke="#ffb700" stroke-width="5.5"/></g><g data-paper-data="{&quot;index&quot;:null}"><path d="M258.34995,161.44725l2.30148,30.3275c0,0 -8.60573,-5.06437 -13.52845,-7.11341c-5.17844,-2.15558 -17.2971,-5.20748 -17.2971,-5.20748z" data-paper-data="{&quot;index&quot;:null}" fill="url(#color-2)" stroke="none" stroke-width="6"/><path d="M258.33293,161.3192c0,0 1.83907,24.26519 2.14026,28.23871c0.0806,1.06304 0.15317,2.02114 0.15317,2.02114c0,0 -1.43201,-0.82871 -3.48133,-1.95459c-3.14644,-1.72867 -7.74831,-4.15805 -10.85702,-5.36454c-5.18681,-2.01297 -16.62404,-4.69745 -16.62404,-4.69745z" data-paper-data="{&quot;index&quot;:null}" fill="none" stroke="#02e2b5" stroke-width="5.5"/></g></g></g></g></svg>