<svg version="1.1" xmlns="http://www.w3.org/2000/svg" xmlns:xlink="http://www.w3.org/1999/xlink" width="47.30386" height="47.11692" viewBox="0,0,47.30386,47.11692"><defs><linearGradient x1="232.62441" y1="158.33433" x2="240.01836" y2="197.11592" gradientUnits="userSpaceOnUse" id="color-1"><stop offset="0" stop-color="#ff9400"/><stop offset="1" stop-color="#ff7200"/></linearGradient></defs><g transform="translate(-216.4834,-156.13134)"><g data-paper-data="{&quot;isPaintingLayer&quot;:true}" fill-rule="nonzero" stroke-linejoin="miter" stroke-miterlimit="10" stroke-dasharray="" stroke-dashoffset="0" style="mix-blend-mode: normal"><g><path d="M218.03182,201.88137l15.58785,-43.76274l28.34852,34.03888z" fill="url(#color-1)" stroke="none" stroke-width="0" stroke-linecap="round"/><path d="M252.8269,181.71003c0.08851,0.11558 0.14594,0.24252 0.18124,0.34054c1.86069,2.12624 3.67105,4.2661 5.3051,6.63626c0.41251,0.59835 1.54507,2.09083 1.3023,2.78839c-0.22538,0.64754 -1.11894,0.54747 -1.67842,0.8212c-1.89952,0.41172 -3.739,0.97689 -5.63718,1.37993c-0.81472,0.17299 -3.29756,0.69047 -3.29756,0.69047c0,0 0.30583,-2.80985 0.36067,-3.71787c0.07847,-1.29921 0.59137,-2.45113 0.86623,-3.68687c0.41105,-1.84797 0.35659,-3.79084 0.92271,-5.52842c0,0 0.31541,-0.91504 1.12438,-0.52592c0.40658,0.19556 0.52916,0.52398 0.55049,0.8023z" fill="#f76f00" stroke="none" stroke-width="2" stroke-linecap="butt"/><path d="M218.03182,201.88137l15.58785,-43.76274l28.34852,34.03888z" fill="none" stroke="#ffb800" stroke-width="2" stroke-linecap="round"/><path d="M228.91388,181.57159c-0.19203,-1.00719 0.4181,-1.98968 1.36272,-2.19443c0.94464,-0.20475 1.8661,0.44578 2.05813,1.45297c0.19203,1.00719 -0.4181,1.98968 -1.36272,2.19443c-0.94464,0.20475 -1.8661,-0.44578 -2.05813,-1.45297z" fill="#000000" stroke="none" stroke-width="0.5" stroke-linecap="butt"/><path d="M238.34105,173.25094c-0.19204,-1.00727 0.4181,-1.98967 1.36272,-2.19442c0.94464,-0.20475 1.86608,0.44571 2.05813,1.45296c0.19203,1.00719 -0.4181,1.98968 -1.36272,2.19443c-0.94464,0.20475 -1.8661,-0.44578 -2.05813,-1.45297z" fill="#000000" stroke="none" stroke-width="0.5" stroke-linecap="butt"/><g data-paper-data="{&quot;index&quot;:null}" fill="#ffaa34" stroke="none" stroke-linecap="butt"><path d="M233.89453,164.30823c0,0 0.4073,-1.22819 1.5592,-0.79391c1.15191,0.43428 0.74461,1.66245 0.74461,1.66245l-0.34117,1.01725c-0.36866,1.44927 -0.88254,2.77825 -1.41417,4.16728c0,0 -0.46163,1.20613 -1.59286,0.71393c-1.13122,-0.49219 -0.66959,-1.69833 -0.66959,-1.69833c0.49331,-1.28889 0.9799,-2.51497 1.31713,-3.86048l0.39686,-1.2082z" data-paper-data="{&quot;index&quot;:null}" stroke-width="2"/><path d="M232.56224,175.26624c-0.75572,0.1638 -1.49288,-0.35662 -1.6465,-1.16237c-0.15362,-0.80576 0.33447,-1.59174 1.09018,-1.75553c0.75572,-0.1638 1.49288,0.35662 1.6465,1.16237c0.15362,0.80576 -0.33447,1.59174 -1.09018,1.75553z" stroke-width="0.5"/></g><g fill="none" stroke="#000000" stroke-width="2" stroke-linecap="round"><path d="M238.18785,188.00267l7.94735,-1.72664"/><g><path d="M236.68532,185.90068c0,0 1.19476,1.31852 1.3469,2.08983c0.15526,0.78721 -0.42451,2.58668 -0.42451,2.58668"/><path d="M247.90148,188.26904c0,0 -1.21045,-1.39806 -1.36572,-2.18526c-0.15213,-0.77131 0.44333,-2.49124 0.44333,-2.49124" data-paper-data="{&quot;index&quot;:null}"/></g></g></g></g></g></svg>