<svg version="1.1" xmlns="http://www.w3.org/2000/svg" xmlns:xlink="http://www.w3.org/1999/xlink" width="341.85295" height="83.8832" viewBox="0,0,341.85295,83.8832"><defs><linearGradient x1="166.61831" y1="166.12981" x2="166.26048" y2="219.29214" gradientUnits="userSpaceOnUse" id="color-1"><stop offset="0" stop-color="#ff9400"/><stop offset="1" stop-color="#ff7200"/></linearGradient><linearGradient x1="190.45563" y1="196.18018" x2="194.14525" y2="210.14122" gradientUnits="userSpaceOnUse" id="color-2"><stop offset="0" stop-color="#ff9400"/><stop offset="1" stop-color="#ff7200"/></linearGradient><linearGradient x1="134.1437" y1="186.35415" x2="130.45409" y2="200.31518" gradientUnits="userSpaceOnUse" id="color-3"><stop offset="0" stop-color="#ff9400"/><stop offset="1" stop-color="#ff7200"/></linearGradient><linearGradient x1="97.23041" y1="139.54019" x2="97.23041" y2="199.82929" gradientUnits="userSpaceOnUse" id="color-4"><stop offset="0" stop-color="#30f533"/><stop offset="1" stop-color="#31f582"/></linearGradient><linearGradient x1="323.38684" y1="193.36206" x2="318.02161" y2="206.60736" gradientUnits="userSpaceOnUse" id="color-5"><stop offset="0" stop-color="#00b6f2"/><stop offset="1" stop-color="#0005ff"/></linearGradient><linearGradient x1="376.32329" y1="166.61005" x2="376.32329" y2="219.77355" gradientUnits="userSpaceOnUse" id="color-6"><stop offset="0" stop-color="#00b6f2"/><stop offset="1" stop-color="#0005ff"/></linearGradient><linearGradient x1="345.75119" y1="199.35792" x2="351.11642" y2="212.60323" gradientUnits="userSpaceOnUse" id="color-7"><stop offset="0" stop-color="#00b6f2"/><stop offset="1" stop-color="#0005ff"/></linearGradient></defs><g transform="translate(-69.79056,-138.29019)"><g data-paper-data="{&quot;isPaintingLayer&quot;:true}" fill-rule="nonzero" stroke-linejoin="miter" stroke-miterlimit="10" stroke-dasharray="" stroke-dashoffset="0" style="mix-blend-mode: normal"><path d="M84.90927,185.9044l-1.96599,6.88095" fill="none" stroke="#30f533" stroke-width="3.5" stroke-linecap="round"/><path d="M71.54056,193.57174c0,0 2.8331,-10.37353 4.35412,-13.56042c1.06705,-2.23572 5.67241,-6.29603 5.67241,-6.29603" fill="none" stroke="#30f533" stroke-width="3.5" stroke-linecap="round"/><path d="M134.12512,219.07585l33.94785,-52.93621l30.32477,53.10431z" fill="url(#color-1)" stroke="none" stroke-width="0" stroke-linecap="round"/><path d="M188.47301,202.81496c0.0921,0.17804 0.13751,0.36183 0.1599,0.5011c2.02024,3.34366 3.96618,6.6904 5.60132,10.28792c0.41278,0.90819 1.58765,3.20407 1.05451,4.04953c-0.49493,0.78482 -1.71974,0.38987 -2.57962,0.58481c-2.77634,-0.01868 -5.51093,0.18208 -8.28297,0.1524c-1.1898,-0.01274 -4.81298,-0.06433 -4.81298,-0.06433c0,0 1.2055,-3.60372 1.5334,-4.78124c0.46917,-1.68483 1.50655,-3.04797 2.23346,-4.59147c1.08706,-2.3082 1.54785,-4.87838 2.82174,-6.99574c0,0 0.69507,-1.10994 1.72142,-0.35995c0.51583,0.37694 0.59684,0.84481 0.5498,1.21698z" fill="#f76f00" stroke="none" stroke-width="2" stroke-linecap="butt"/><path d="M134.12512,219.07585l33.94785,-52.93621l30.32477,53.10431z" fill="none" stroke="#ffb800" stroke-width="3" stroke-linecap="round"/><path d="M162.85393,195.9771c0.00929,-1.38067 1.1361,-2.49241 2.51677,-2.48312c1.38067,0.00929 2.49241,1.1361 2.48312,2.51677c-0.00929,1.38067 -1.1361,2.49241 -2.51677,2.48312c-1.38067,-0.00929 -2.49241,-1.1361 -2.48312,-2.51677z" fill="#000000" stroke="none" stroke-width="0.5" stroke-linecap="butt"/><path d="M175.74779,194.23722c0.00929,-1.38077 1.1361,-2.49241 2.51677,-2.48312c1.38067,0.00929 2.49241,1.136 2.48312,2.51677c-0.00929,1.38067 -1.1361,2.49241 -2.51677,2.48312c-1.38067,-0.00929 -2.49241,-1.1361 -2.48312,-2.51677z" fill="#000000" stroke="none" stroke-width="0.5" stroke-linecap="butt"/><path d="M159.92553,207.16521c0,0 5.59875,-0.36946 7.51278,-0.35746c1.95731,0.01227 4.10414,0.43025 4.10414,0.43025" fill="none" stroke="#000000" stroke-width="2.5" stroke-linecap="round"/><g data-paper-data="{&quot;index&quot;:null}" fill="#ffaa34" stroke="none" stroke-linecap="butt"><path d="M166.74704,174.3576c0,0 0.91045,-1.49453 2.40497,-0.58408c1.49453,0.91045 0.58408,2.40497 0.58408,2.40497l-0.75944,1.23672c-0.91742,1.79656 -2.00513,3.39218 -3.1343,5.0615c0,0 -0.9805,1.44952 -2.43003,0.46902c-1.44952,-0.9805 -0.46902,-2.43003 -0.46902,-2.43003c1.04778,-1.54897 2.0688,-3.01735 2.91347,-4.68678l0.8903,-1.47133z" data-paper-data="{&quot;index&quot;:null}" stroke-width="2"/><path d="M161.85011,188.37042c-1.10455,-0.00743 -1.99393,-0.90887 -1.98649,-2.01341c0.00743,-1.10455 0.90887,-1.99393 2.01341,-1.98649c1.10455,0.00743 1.99393,0.90887 1.98649,2.01341c-0.00743,1.10455 -0.90887,1.99393 -2.01341,1.98649z" stroke-width="0.5"/></g><g data-paper-data="{&quot;index&quot;:null}" stroke-linecap="round"><path d="M185.68774,212.30205l4.38588,-16.02091l12.51075,11.62979z" fill="url(#color-2)" stroke="none" stroke-width="1.5"/><path d="M185.68774,212.30205l4.38588,-16.02091l12.51075,11.62979z" fill="none" stroke="#ffb800" stroke-width="2"/></g><g data-paper-data="{&quot;index&quot;:null}" stroke-linecap="round"><path d="M122.01497,198.0849l12.51074,-11.62979l4.38588,16.02091z" fill="url(#color-3)" stroke="none" stroke-width="1.5"/><path d="M122.01497,198.0849l12.51074,-11.62979l4.38588,16.02091z" fill="none" stroke="#ffb800" stroke-width="2"/></g><path d="M161.67594,192.42977l5.24056,0.9171" fill="none" stroke="#000000" stroke-width="2.5" stroke-linecap="round"/><path d="M181.72107,190.46456l-5.24056,0.9171" data-paper-data="{&quot;index&quot;:null}" fill="none" stroke="#000000" stroke-width="2.5" stroke-linecap="round"/><path d="M90.31989,196.73839l-5.1676,23.685" fill="none" stroke="#30f533" stroke-width="3.5" stroke-linecap="round"/><path d="M107.68504,220.24876l-3.8757,-21.9624" fill="none" stroke="#30f533" stroke-width="3.5" stroke-linecap="round"/><path d="M97.23041,199.82929c-9.7512,0 -17.6561,-13.4962 -17.6561,-30.1446c0,-16.6483 7.9049,-30.1445 17.6561,-30.1445c9.7512,0 17.6561,13.4962 17.6561,30.1445c0,16.6484 -7.9049,30.1446 -17.6561,30.1446z" fill="url(#color-4)" stroke="#23ad25" stroke-width="2.5" stroke-linecap="butt"/><path d="M90.74456,165.42921c0,-1.1891 0.964,-2.1531 2.1532,-2.1531c1.1891,0 2.1532,0.964 2.1532,2.1531c0,1.1892 -0.9641,2.1532 -2.1532,2.1532c-1.1892,0 -2.1532,-0.964 -2.1532,-2.1532z" fill="#000000" stroke="none" stroke-width="0.5" stroke-linecap="butt"/><path d="M106.16187,163.22232c0,-1.1891 0.964,-2.1532 2.1532,-2.1532c1.1892,0 2.1532,0.9641 2.1532,2.1532c0,1.1892 -0.964,2.1532 -2.1532,2.1532c-1.1892,0 -2.1532,-0.964 -2.1532,-2.1532z" fill="#000000" stroke="none" stroke-width="0.5" stroke-linecap="butt"/><g fill="#97f599" stroke="none" stroke-width="0.5" stroke-linecap="butt"><path d="M104.3863,151.0702c-0.91934,0 -1.35572,-0.48297 -1.56285,-0.94146c-1.76363,-1.28627 -3.29695,-2.49594 -5.3532,-3.41705c0,0 -1.59314,-0.72416 -0.86899,-2.3173c0.72416,-1.59314 2.3173,-0.86899 2.3173,-0.86899c2.47497,1.13892 4.28846,2.58188 6.48491,4.14961l0.73283,1.64517c0,0 0,1.75 -1.75,1.75z"/><path d="M105.28997,153.07957c0,-0.9665 0.7835,-1.75 1.75,-1.75c0.9665,0 1.75,0.7835 1.75,1.75c0,0.9665 -0.7835,1.75 -1.75,1.75c-0.9665,0 -1.75,-0.7835 -1.75,-1.75z"/></g><path d="M88.44804,178.82685c0,0 2.0282,-1.17914 4.25327,-0.86575c2.41257,0.3398 9.70522,2.83173 9.70522,2.83173" fill="none" stroke="#000000" stroke-width="2.5" stroke-linecap="round"/><path d="M88.64464,155.82482c0,0 1.41703,-0.92988 2.18608,-1.11446c0.85924,-0.20622 2.72888,-0.06514 2.72888,-0.06514" fill="none" stroke="#000000" stroke-width="2.5" stroke-linecap="round"/><path d="M106.53512,154.64523c0,0 1.86964,-0.14109 2.72888,0.06513c0.76906,0.18457 2.18608,1.11445 2.18608,1.11445" data-paper-data="{&quot;index&quot;:null}" fill="none" stroke="#000000" stroke-width="2.5" stroke-linecap="round"/><g><g data-paper-data="{&quot;index&quot;:null}" stroke-width="1.5" stroke-linecap="round"><path d="M310.01512,203.36418l13.73416,-9.85532l2.30552,16.27576z" data-paper-data="{&quot;index&quot;:null}" fill="url(#color-5)" stroke="none"/><path d="M310.01512,203.36418l13.73416,-9.85532l2.30552,16.27576z" data-paper-data="{&quot;index&quot;:null}" fill="none" stroke="#0010c6"/></g><g stroke-width="1.5"><g stroke-linecap="round"><path d="M336.50209,196.2355c3.9575,0.49144 6.77165,1.84989 9.80475,3.96146c1.44109,1.00535 2.73041,2.64625 3.32858,4.83222c0.47169,1.74714 0.5369,4.21801 -0.28388,5.8233c-0.94909,1.85629 -2.6931,2.52588 -4.15042,2.84492c-3.33356,0.72502 -6.69198,0.47777 -9.95265,-0.06418c-3.69024,-0.45513 -7.42437,-1.04045 -10.84098,-2.91851c-1.2914,-0.70955 -2.30343,-2.46142 -2.89441,-4.33614c-0.37333,-1.24903 -0.52073,-3.29811 0.14069,-4.66935c1.06203,-1.95109 2.70943,-3.3577 4.37253,-4.03058c3.44868,-1.38597 6.51829,-1.93458 10.47579,-1.44314z" data-paper-data="{&quot;origPos&quot;:null}" fill="#d40000" stroke="#700000"/><path d="M336.45974,196.26007c3.95949,0.49169 6.85733,1.0309 9.96007,2.74966c1.44328,0.80026 3.40084,2.56494 3.11781,4.38564c-0.16322,1.7729 -2.54642,2.54328 -4.01031,2.80155c-3.46593,0.61114 -6.92373,0.43055 -10.37758,-0.05538c-3.46965,-0.43005 -7.03874,-1.31059 -10.32716,-2.89984c-1.0955,-0.52782 -2.71327,-1.73992 -2.38014,-3.21099c0.32057,-1.90471 2.24345,-3.16516 3.68732,-3.54059c3.43473,-0.89223 6.3706,-0.72174 10.32999,-0.23006z" data-paper-data="{&quot;origPos&quot;:null}" fill="#ff0000" stroke="#703d00"/><path d="M337.33473,196.45306c5.90467,0.72578 7.09453,1.99418 10.42086,3.36735c1.56393,0.64585 3.27734,1.94057 3.65652,3.5287c0.52765,2.21349 0.01148,5.91571 -1.13342,6.73103c-0.81181,0.57958 -1.49974,-3.37645 -2.75671,-3.70032c-0.78482,-0.29103 -0.38854,2.12915 -1.32697,2.47061c-1.27532,0.45763 -3.20278,-1.69218 -3.99614,-0.7938c-0.89921,1.02047 1.12317,3.12251 0.46744,4.45032c-0.34984,0.87133 -2.23775,1.20905 -2.68547,0.40334c-0.85299,-1.53703 0.60801,-3.6636 -0.08095,-5.28083c-0.36158,-0.85105 -1.80912,-1.06768 -2.55898,-0.61534c-1.40977,0.85388 -1.53856,3.10658 -2.96166,3.88282c-0.76131,0.41474 -1.82763,-0.07389 -2.41946,-0.59791c-1.46373,-1.58506 -1.48363,-4.77211 -3.42434,-5.39844c-1.46398,-0.47453 -2.74319,3.33013 -3.71431,2.75497c-1.09661,-0.65523 0.68709,-4.3783 -0.20316,-5.43758c-0.55063,-0.65213 -2.15433,2.53836 -2.72774,1.99909c-0.65548,-0.71422 -0.43764,-3.17604 0.26142,-4.5015c0.72384,-1.3383 2.16626,-2.48428 3.66811,-2.70751c3.75496,-0.55701 3.2236,-1.14931 11.51496,-0.55501z" data-paper-data="{&quot;origPos&quot;:null}" fill="#ff0000" stroke="#703d00"/></g><path d="M336.79419,196.05149c3.56726,0.53256 7.20565,1.19508 10.50864,2.66048c1.71062,0.7605 3.78361,2.13846 4.36866,4.06988c0.62262,2.11001 0.09407,5.91276 -1.27391,6.72144c-0.94422,0.52928 -1.81319,-3.62508 -3.3515,-4.04555c-0.84502,-0.23956 -0.39619,2.19077 -1.33623,2.54513c-1.27748,0.47509 -3.19823,-1.7288 -3.9951,-0.80214c-0.90318,1.05242 1.11269,3.20686 0.45211,4.57458c-0.35315,0.89712 -2.24296,1.25103 -2.68805,0.42408c-0.84807,-1.57743 0.62105,-3.7694 -0.06254,-5.42989c-0.35875,-0.87387 -1.80606,-1.09148 -2.55794,-0.62367c-1.41338,0.88296 -1.55003,3.19978 -2.97659,4.003c-0.7631,0.42913 -1.82816,-0.06962 -2.41841,-0.60635c-1.4588,-1.62476 -1.46752,-4.90181 -3.40686,-5.53916c-1.46286,-0.48275 -2.75599,3.43405 -3.72553,2.84609c-1.09478,-0.67002 0.70277,-4.50463 -0.18423,-5.59082c-0.54859,-0.6686 -2.1642,2.61785 -2.73596,2.06528c-0.65326,-0.73208 -0.42659,-3.26425 0.27734,-4.62971c0.72897,-1.37878 2.17603,-2.56217 3.67923,-2.79702c3.75865,-0.58588 7.64661,-0.25584 11.42688,0.15434z" data-paper-data="{&quot;origPos&quot;:null}" fill="#ff0000" stroke="#ff0000" stroke-linecap="round"/><path d="M336.78646,199.25173c0.91418,0.11352 1.73474,0.28062 2.32198,0.45864c0.58684,0.17797 0.94054,0.367 0.92092,0.52499c-0.01962,0.15799 -0.4088,0.25466 -1.02136,0.2838c-0.61294,0.02899 -1.44945,-0.00969 -2.36363,-0.12322c-0.91428,-0.11353 -1.73484,-0.28063 -2.32198,-0.45864c-0.58693,-0.17809 -0.94064,-0.36702 -0.92102,-0.525c0.01962,-0.15799 0.40881,-0.25476 1.02146,-0.28379c0.61284,-0.029 1.44935,0.00968 2.36363,0.12322z" fill="#ff0000" stroke="#703d00" stroke-linecap="butt"/><g data-paper-data="{&quot;origPos&quot;:null}" fill="#ff0000" stroke="#6148a4" stroke-linecap="round"><path d="M330.75342,200.65526l-1.09734,1.76231" data-paper-data="{&quot;origPos&quot;:null}"/><path d="M338.06666,197.21457l-1.73031,-0.21487" data-paper-data="{&quot;origPos&quot;:null}"/><path d="M336.21732,205.03276l1.80125,-0.35725" data-paper-data="{&quot;origPos&quot;:null}"/><path d="M343.11379,203.69292l-1.51965,-0.76954" data-paper-data="{&quot;origPos&quot;:null}"/><path d="M325.79957,204.03656l1.50821,-0.39364" data-paper-data="{&quot;origPos&quot;:null}"/><path d="M322.61722,200.22585l0.14382,-1.1582" data-paper-data="{&quot;origPos&quot;:null}"/><path d="M331.47332,196.11245l-1.31496,-0.02161" data-paper-data="{&quot;origPos&quot;:null}"/><path d="M351.13482,206.30427l0.19754,-1.59078" data-paper-data="{&quot;origPos&quot;:null}"/><path d="M342.01623,200.77966l1.29763,0.16114" data-paper-data="{&quot;origPos&quot;:null}"/><path d="M342.13384,197.43626l0.86515,0.10743z" data-paper-data="{&quot;origPos&quot;:null}"/></g><g data-paper-data="{&quot;origPos&quot;:null}" fill="#ff0000" stroke="#9b4976" stroke-linecap="round"><path d="M328.98998,198.42525l1.47191,-0.10058" data-paper-data="{&quot;origPos&quot;:null}"/><path d="M333.165,202.45749l1.73021,0.21486" data-paper-data="{&quot;origPos&quot;:null}"/><path d="M344.74684,202.2947l0.16114,-1.29763" data-paper-data="{&quot;origPos&quot;:null}"/><path d="M339.60696,197.70341l1.34373,1.04526" data-paper-data="{&quot;origPos&quot;:null}"/><path d="M349.67319,203.92663l-0.19753,1.59068" data-paper-data="{&quot;origPos&quot;:null}"/><path d="M347.49022,200.28334l1.1582,0.14382" data-paper-data="{&quot;origPos&quot;:null}"/><path d="M326.04795,198.49916l-1.45887,1.13648" data-paper-data="{&quot;origPos&quot;:null}"/></g><g data-paper-data="{&quot;origPos&quot;:null}" fill="#ff0000" stroke="#ffffff" stroke-linecap="round"><path d="M327.14378,201.42642l-1.17877,0.13698" data-paper-data="{&quot;origPos&quot;:null}"/><path d="M334.30548,198.06515l-1.03336,-1.1484" data-paper-data="{&quot;origPos&quot;:null}"/><path d="M334.12967,206.09116l-1.2707,0.87649" data-paper-data="{&quot;origPos&quot;:null}"/><path d="M340.27383,206.13153l-1.05067,-1.00897" data-paper-data="{&quot;origPos&quot;:null}"/><path d="M342.9593,205.72819l-0.24696,0.84783z" data-paper-data="{&quot;origPos&quot;:null}"/><path d="M345.27322,198.84619l-1.29763,-0.16114" data-paper-data="{&quot;origPos&quot;:null}"/><path d="M348.23298,203.30854l-1.18059,0.15086" data-paper-data="{&quot;origPos&quot;:null}"/><path d="M324.91137,197.04028l-1.66346,0.38857" data-paper-data="{&quot;origPos&quot;:null}"/><path d="M327.70663,197.68496l-0.30782,-1.0584z" data-paper-data="{&quot;origPos&quot;:null}"/><path d="M339.28544,202.33912l-0.06515,-0.7307z" data-paper-data="{&quot;origPos&quot;:null}"/></g></g><g><path d="M344.18714,219.50905l30.6814,-52.899l33.5909,53.1635z" data-paper-data="{&quot;index&quot;:null}" fill="url(#color-6)" stroke="none" stroke-width="0" stroke-linecap="round"/><path d="M374.66744,206.17231h-11.7548" data-paper-data="{&quot;index&quot;:null}" fill="none" stroke="#000000" stroke-width="2.5" stroke-linecap="round"/><path d="M352.78792,202.98449c-0.05277,-0.41747 0.0381,-0.94229 0.61673,-1.36513c1.1513,-0.84129 1.93098,0.40378 1.93098,0.40378c1.42897,2.37513 1.94587,5.2582 3.16527,7.8474c0.81542,1.7314 1.97907,3.2605 2.50536,5.15044c0.36781,1.32087 1.72007,5.3633 1.72007,5.3633c0,0 -4.06425,0.05788 -5.3989,0.07216c-3.1095,0.03331 -6.17701,-0.19191 -9.29134,-0.17094c-0.96455,-0.21866 -2.33847,0.22437 -2.89365,-0.656c-0.59804,-0.94838 0.71986,-3.52377 1.18289,-4.54252c1.8342,-4.03549 4.01704,-7.78966 6.28322,-11.54037c0.02513,-0.15622 0.07606,-0.36239 0.17938,-0.5621z" data-paper-data="{&quot;index&quot;:null}" fill="#0015b5" stroke="none" stroke-width="2" stroke-linecap="butt"/><g data-paper-data="{&quot;index&quot;:null}" stroke="none" stroke-linecap="butt"><path d="M376.29837,175.06524l0.89029,1.47133c0.84467,1.66943 1.86569,3.13781 2.91347,4.68678c0,0 0.98051,1.44954 -0.46901,2.43003c-1.44954,0.9805 -2.43003,-0.46902 -2.43003,-0.46902c-1.12918,-1.66932 -2.21689,-3.26494 -3.13431,-5.0615l-0.75944,-1.23673c0,0 -0.91045,-1.49452 0.58408,-2.40497c1.49452,-0.91045 2.40497,0.58408 2.40497,0.58408z" data-paper-data="{&quot;index&quot;:null}" fill="#3ab4f5" stroke-width="2"/><path d="M379.18191,187.09156c-0.00744,-1.10454 0.88194,-2.00598 1.98649,-2.01341c1.10455,-0.00744 2.00599,0.88194 2.01342,1.98649c0.00743,1.10455 -0.88195,2.00599 -1.9865,2.01342c-1.10454,0.00743 -2.00598,-0.88195 -2.01341,-1.9865z" fill="#339cd4" stroke-width="0.5"/></g><path d="M344.18714,219.50905l30.6814,-52.899l33.5909,53.1635z" data-paper-data="{&quot;index&quot;:null}" fill="none" stroke="#0010c6" stroke-width="3.5" stroke-linecap="round"/><path d="M381.58334,198.64185c-1.3807,0 -2.5,-1.1193 -2.5,-2.5c0,-1.3807 1.1193,-2.5 2.5,-2.5c1.3807,0 2.5,1.1193 2.5,2.5c0,1.3807 -1.1193,2.5 -2.5,2.5z" data-paper-data="{&quot;index&quot;:null}" fill="#000000" stroke="none" stroke-width="0.5" stroke-linecap="butt"/><path d="M366.02424,193.73715c-1.3807,0 -2.5,-1.1193 -2.5,-2.5c0,-1.3807 1.1193,-2.5 2.5,-2.5c1.3808,0 2.5,1.1193 2.5,2.5c0,1.3807 -1.1192,2.5 -2.5,2.5z" data-paper-data="{&quot;index&quot;:null}" fill="#000000" stroke="none" stroke-width="0.5" stroke-linecap="butt"/><path d="M390.97926,189.13265l-13,4.6666" data-paper-data="{&quot;index&quot;:null}" fill="none" stroke="#000000" stroke-width="3.5" stroke-linecap="round"/><path d="M356.00204,180.74775l13.2877,8.1031" data-paper-data="{&quot;index&quot;:null}" fill="none" stroke="#000000" stroke-width="3.5" stroke-linecap="round"/></g><g stroke-width="1.5" stroke-linecap="round"><path d="M343.08324,215.78048l2.30552,-16.27576l13.73415,9.85533z" data-paper-data="{&quot;index&quot;:null}" fill="url(#color-7)" stroke="none"/><path d="M343.08324,215.78048l2.30552,-16.27576l13.73415,9.85533z" data-paper-data="{&quot;index&quot;:null}" fill="none" stroke="#0010c6"/></g></g></g></g></svg>