<svg version="1.1" xmlns="http://www.w3.org/2000/svg" xmlns:xlink="http://www.w3.org/1999/xlink" width="63.31044" height="63.31044" viewBox="0,0,63.31044,63.31044"><defs><radialGradient cx="240.00005" cy="180" r="29.90522" gradientUnits="userSpaceOnUse" id="color-1"><stop offset="0" stop-color="#e3f5da"/><stop offset="1" stop-color="#e35ce6"/></radialGradient></defs><g transform="translate(-208.34482,-148.34478)"><g data-paper-data="{&quot;isPaintingLayer&quot;:true}" fill-rule="nonzero" stroke-linejoin="miter" stroke-miterlimit="10" stroke-dasharray="" stroke-dashoffset="0" style="mix-blend-mode: normal"><path d="M210.09483,209.90522v-59.81044h59.81044v59.81044z" fill="url(#color-1)" stroke="#ffffff" stroke-width="3.5" stroke-linecap="butt"/><g fill="none" stroke-linecap="round"><path d="M251.1294,163.49715c0,0 0.72555,5.70466 1.1635,12.25526c0.38701,5.78855 0.68639,12.23768 -1.9135,15.99474c-2.75211,3.97704 -5.4978,4.38183 -8.48429,4.64837c-2.54038,0.22673 -6.32177,0.54437 -10.14071,-4.27337c-3.47098,-4.37877 -4.07693,-10.74311 -4.25542,-16.35937c-0.21161,-6.65857 0.38042,-12.26563 0.38042,-12.26563" stroke="#000000" stroke-width="11"/><path d="M251.12942,163.49715c0,0 0.72555,5.70466 1.1635,12.25526c0.38701,5.78855 0.68639,12.23768 -1.9135,15.99474c-2.75211,3.97704 -5.4978,4.38183 -8.48429,4.64837c-2.54038,0.22673 -6.32177,0.54437 -10.14071,-4.27337c-3.47098,-4.37877 -4.07693,-10.74311 -4.25542,-16.35937c-0.21161,-6.65857 0.38042,-12.26563 0.38042,-12.26563" stroke="#e35ce6" stroke-width="7.5"/><path d="M251.12942,163.49715c0,0 0.72555,5.70466 1.1635,12.25526c0.38701,5.78855 0.68639,12.23768 -1.9135,15.99474c-2.75211,3.97704 -5.4978,4.38183 -8.48429,4.64837c-2.54038,0.22673 -6.32177,0.54437 -10.14071,-4.27337c-3.47098,-4.37877 -4.07693,-10.74311 -4.25542,-16.35937c-0.21161,-6.65857 0.38042,-12.26563 0.38042,-12.26563" stroke="#fc66ff" stroke-width="4.5"/></g></g></g></svg>