<svg version="1.1" xmlns="http://www.w3.org/2000/svg" xmlns:xlink="http://www.w3.org/1999/xlink" width="63.31044" height="63.31044" viewBox="0,0,63.31044,63.31044"><defs><radialGradient cx="240.00006" cy="180" r="29.90522" gradientUnits="userSpaceOnUse" id="color-1"><stop offset="0" stop-color="#f5e8da"/><stop offset="1" stop-color="#e6a65c"/></radialGradient><linearGradient x1="229.12786" y1="179.29117" x2="249.45453" y2="213.72105" gradientUnits="userSpaceOnUse" id="color-2"><stop offset="0" stop-color="#ff9400"/><stop offset="1" stop-color="#ff7200"/></linearGradient></defs><g transform="translate(-208.34483,-148.34478)"><g data-paper-data="{&quot;isPaintingLayer&quot;:true}" fill-rule="nonzero" stroke-linejoin="miter" stroke-miterlimit="10" stroke-dasharray="" stroke-dashoffset="0" style="mix-blend-mode: normal"><path d="M210.09484,209.90522v-59.81044h59.81044v59.81044z" fill="url(#color-1)" stroke="#ffffff" stroke-width="3.5" stroke-linecap="butt"/><g><g fill="#000000" stroke="#000000" stroke-linecap="butt"><path d="M220.88339,198.21l19.32421,-35.00235l20.32666,34.42987z" stroke-width="0"/><path d="M260.53424,197.63751l-22.93514,0.33113c2.90143,-2.46605 5.59113,-5.23536 8.05834,-8.2468c1.62011,-1.97749 3.2707,-4.07784 4.60181,-6.32819c0.34803,-0.4926 0.66779,-1.00647 0.957,-1.53918z" stroke-width="0"/><path d="M220.88339,198.21l19.32421,-35.00235l20.32666,34.42987z" stroke-width="1.5"/></g><g stroke-linecap="butt"><path d="M219.46575,196.79236l19.32421,-35.00235l20.32667,34.42987z" fill="url(#color-2)" stroke="none" stroke-width="0"/><path d="M259.11662,196.20853l-15.78513,0.06634l7.76527,-13.99714z" fill="#ff7000" stroke="none" stroke-width="0"/><path d="M219.46575,196.79236l19.32421,-35.00235l20.32667,34.42987z" fill="none" stroke="#ffb800" stroke-width="1.5"/><path d="M234.84113,174.42185c-0.73907,-0.73907 -0.31049,-1.47813 -0.09783,-1.756c0.8281,-1.86545 1.90642,-3.60108 2.78313,-5.45284c0,0 0.56641,-1.19575 1.76217,-0.62935c1.19576,0.56641 0.62935,1.76217 0.62935,1.76217c-0.89409,1.88661 -2.01915,3.65612 -2.83303,5.56959l-0.3726,0.50643c0,0 -0.9356,0.9356 -1.87118,0z" fill="#ffa629" stroke="none" stroke-width="0.5"/><path d="M232.98086,176.24764c0,-0.73075 0.59238,-1.32313 1.32313,-1.32313c0.73075,0 1.32313,0.59238 1.32313,1.32313c0,0.73075 -0.59238,1.32313 -1.32313,1.32313c-0.73075,0 -1.32313,-0.59238 -1.32313,-1.32313z" fill="#ffa629" stroke="none" stroke-width="0.5"/></g><g fill="#000000" stroke="none" stroke-width="0" stroke-linecap="butt"><path d="M233.44473,182.35978c0,-1.46907 0.79394,-2.65998 1.77332,-2.65998c0.97938,0 1.77331,1.19091 1.77331,2.65998c0,1.46907 -0.79393,2.65999 -1.77331,2.65999c-0.97938,0 -1.77332,-1.19092 -1.77332,-2.65999z"/><path d="M241.59101,181.89312c0,-1.46907 0.79393,-2.65999 1.77331,-2.65999c0.97938,0 1.77332,1.19092 1.77332,2.65999c0,1.46907 -0.79394,2.65998 -1.77332,2.65998c-0.97938,0 -1.77331,-1.19091 -1.77331,-2.65998z"/></g><g fill="none" stroke="#000000" stroke-width="1.5" stroke-linecap="round"><path d="M233.04007,179.34507c0,0 1.00435,-1.1314 1.59264,-1.32049c0.54435,-0.17498 1.81554,0.22501 1.81554,0.22501"/><path d="M242.05059,178.08383c0,0 1.23872,-0.49138 1.79437,-0.35647c0.60048,0.14581 1.68447,1.20116 1.68447,1.20116" data-paper-data="{&quot;index&quot;:null}"/></g></g></g></g></svg>