<svg version="1.1" xmlns="http://www.w3.org/2000/svg" xmlns:xlink="http://www.w3.org/1999/xlink" width="63.31044" height="63.31044" viewBox="0,0,63.31044,63.31044"><defs><radialGradient cx="240.00005" cy="180" r="29.90522" gradientUnits="userSpaceOnUse" id="color-1"><stop offset="0" stop-color="#dae5f5"/><stop offset="1" stop-color="#5c93e6"/></radialGradient><linearGradient x1="228.06898" y1="179.22213" x2="250.37542" y2="217.00542" gradientUnits="userSpaceOnUse" id="color-2"><stop offset="0" stop-color="#003fe8"/><stop offset="1" stop-color="#0065ca"/></linearGradient></defs><g transform="translate(-208.34482,-148.34478)"><g data-paper-data="{&quot;isPaintingLayer&quot;:true}" fill-rule="nonzero" stroke-linejoin="miter" stroke-miterlimit="10" stroke-dasharray="" stroke-dashoffset="0" style="mix-blend-mode: normal"><path d="M210.09483,209.90522v-59.81044h59.81044v59.81044z" fill="url(#color-1)" stroke="#ffffff" stroke-width="3.5" stroke-linecap="butt"/><g fill="#000000" stroke="#000000" stroke-linecap="butt"><path d="M219.02151,199.98363l21.20635,-38.41152l22.30644,37.78328z" stroke-width="0"/><path d="M262.53425,199.35537l-25.16898,0.36339c3.18403,-2.70624 6.1357,-5.74527 8.84321,-9.05003c1.77791,-2.17009 3.58926,-4.47501 5.05002,-6.94455c0.38193,-0.54057 0.73283,-1.1045 1.05021,-1.68909z" stroke-width="0"/><path d="M219.02151,199.98363l21.20635,-38.41152l22.30644,37.78328z" stroke-width="1.5"/></g><g stroke-linecap="butt"><path d="M217.4658,198.4279l21.20635,-38.41152l22.30645,37.78328z" fill="url(#color-2)" stroke="none" stroke-width="0"/><path d="M260.97857,197.78721l-17.32257,0.0728l8.5216,-15.36044z" fill="#005bdb" stroke="none" stroke-width="0"/><path d="M217.4658,198.4279l21.20635,-38.41152l22.30645,37.78328z" fill="none" stroke="#0044ff" stroke-width="1.5"/><path d="M234.33871,173.87855c-0.81106,-0.81106 -0.34073,-1.6221 -0.10736,-1.92703c0.90876,-2.04714 2.0921,-3.95182 3.0542,-5.98394c0,0 0.62158,-1.31221 1.9338,-0.69065c1.31223,0.62158 0.69065,1.9338 0.69065,1.9338c-0.98117,2.07037 -2.21581,4.01222 -3.10896,6.11206l-0.40889,0.55576c0,0 -1.02673,1.02673 -2.05342,0z" fill="#0061e9" stroke="none" stroke-width="0.5"/><path d="M232.29725,175.88217c0,-0.80192 0.65008,-1.452 1.452,-1.452c0.80192,0 1.452,0.65008 1.452,1.452c0,0.80192 -0.65008,1.452 -1.452,1.452c-0.80192,0 -1.452,-0.65008 -1.452,-1.452z" fill="#0061e9" stroke="none" stroke-width="0.5"/></g><g fill="#000000" stroke="none" stroke-width="0" stroke-linecap="butt"><path d="M231.58407,183.03407c0,-1.61216 0.87127,-2.91905 1.94604,-2.91905c1.07477,0 1.94603,1.3069 1.94603,2.91905c0,1.61216 -0.87126,2.91906 -1.94603,2.91906c-1.07477,0 -1.94604,-1.30692 -1.94604,-2.91906z"/><path d="M240.52379,182.52196c0,-1.61216 0.87126,-2.91906 1.94603,-2.91906c1.07477,0 1.94604,1.30692 1.94604,2.91906c0,1.61216 -0.87127,2.91905 -1.94604,2.91905c-1.07477,0 -1.94603,-1.3069 -1.94603,-2.91905z"/></g><g fill="none" stroke="#000000" stroke-width="1.5" stroke-linecap="round"><path d="M231.58445,178.5035c0,0 1.0646,-0.13972 1.74776,-0.11577c0.68316,0.02396 1.99237,0.24692 1.99237,0.24692"/><path d="M241.36223,178.30132c0,0 1.30921,-0.22297 1.99237,-0.24692c0.68316,-0.02396 1.74776,0.11577 1.74776,0.11577" data-paper-data="{&quot;index&quot;:null}"/></g></g></g></svg>