<svg version="1.1" xmlns="http://www.w3.org/2000/svg" xmlns:xlink="http://www.w3.org/1999/xlink" width="63.31044" height="63.31044" viewBox="0,0,63.31044,63.31044"><defs><radialGradient cx="240.00005" cy="180" r="29.90522" gradientUnits="userSpaceOnUse" id="color-1"><stop offset="0" stop-color="#e3f5da"/><stop offset="1" stop-color="#8ae65c"/></radialGradient></defs><g transform="translate(-208.34482,-148.34478)"><g data-paper-data="{&quot;isPaintingLayer&quot;:true}" fill-rule="nonzero" stroke-linejoin="miter" stroke-miterlimit="10" stroke-dasharray="" stroke-dashoffset="0" style="mix-blend-mode: normal"><path d="M210.09483,209.90522v-59.81044h59.81044v59.81044z" fill="url(#color-1)" stroke="#ffffff" stroke-width="3.5" stroke-linecap="butt"/><g fill="none" stroke-linecap="round"><g stroke="#000000"><path d="M230.38186,194.56763c0,0 -0.25161,-9.84884 -0.37466,-14.66523c-0.11948,-4.67655 -0.35322,-13.82595 -0.35322,-13.82595c0,0 11.61461,-3.39912 17.98896,1.7677c6.37435,5.16682 -0.52492,12.0454 -0.52492,12.0454c0,0 5.91224,8.13799 1.46076,12.39047c-4.45147,4.25248 -18.19692,2.28761 -18.19692,2.28761z" stroke-width="11"/><path d="M246.81108,180.11408l-15.23546,0.41593" stroke-width="13.5"/></g><g stroke="#8ae65c" stroke-width="7.5"><path d="M230.38186,194.56763c0,0 -0.25161,-9.84884 -0.37466,-14.66523c-0.11948,-4.67655 -0.35322,-13.82595 -0.35322,-13.82595c0,0 11.61461,-3.39912 17.98896,1.7677c6.37435,5.16682 -0.52492,12.0454 -0.52492,12.0454c0,0 5.91224,8.13799 1.46076,12.39047c-4.45147,4.25248 -18.19692,2.28761 -18.19692,2.28761z"/><path d="M246.81108,180.11408l-15.90931,0.41593"/></g><g stroke="#99ff66" stroke-width="4.5"><path d="M230.38186,194.56763c0,0 -0.25161,-9.84884 -0.37466,-14.66523c-0.11948,-4.67655 -0.35322,-13.82595 -0.35322,-13.82595c0,0 11.61461,-3.39912 17.98896,1.7677c6.37435,5.16682 -0.52492,12.0454 -0.52492,12.0454c0,0 5.91224,8.13799 1.46076,12.39047c-4.45147,4.25248 -18.19692,2.28761 -18.19692,2.28761z"/><path d="M246.81108,180.11408l-15.90931,0.41593"/></g></g></g></g></svg>