<svg version="1.1" xmlns="http://www.w3.org/2000/svg" xmlns:xlink="http://www.w3.org/1999/xlink" width="63.31044" height="63.31044" viewBox="0,0,63.31044,63.31044"><defs><radialGradient cx="240.00006" cy="180" r="29.90522" gradientUnits="userSpaceOnUse" id="color-1"><stop offset="0" stop-color="#e3f5da"/><stop offset="1" stop-color="#8ae65c"/></radialGradient></defs><g transform="translate(-208.34484,-148.34478)"><g data-paper-data="{&quot;isPaintingLayer&quot;:true}" fill-rule="nonzero" stroke-linejoin="miter" stroke-miterlimit="10" stroke-dasharray="" stroke-dashoffset="0" style="mix-blend-mode: normal"><path d="M210.09485,209.90522v-59.81044h59.81044v59.81044z" fill="url(#color-1)" stroke="#ffffff" stroke-width="3.5" stroke-linecap="butt"/><g fill="#000000" stroke="#000000"><path d="M240.87497,202.70626c-7.01038,-0.04146 -12.63623,-9.74834 -12.56566,-21.68092c0.07057,-11.93258 5.81083,-21.57224 12.82121,-21.53078c7.01038,0.04146 12.63623,9.74834 12.56566,21.68091c-0.07057,11.93258 -5.81082,21.57224 -12.82121,21.53078z" data-paper-data="{&quot;index&quot;:null}" stroke-width="0" stroke-linecap="butt"/><path d="M249.3394,175.24651c-2.04731,-0.01211 -2.52078,-3.04506 -2.52078,-3.04506l-0.6166,-2.05066c-0.88173,-2.85014 -2.53325,-4.02668 -4.82422,-5.76163c0,0 -2.12486,-0.74963 -0.88678,-2.38023c1.23809,-1.63059 2.86868,-0.39252 2.86868,-0.39252c1.91959,1.46175 3.70995,2.8477 4.98781,5.01342c0.57393,0.97268 1.04904,1.8155 1.40882,2.88606l0.82938,2.70783c0,0 0.80102,3.03489 -1.24632,3.02277z" data-paper-data="{&quot;index&quot;:null}" stroke-width="0.5" stroke-linecap="butt"/><path d="M249.19702,196.33602l-3.14334,3.01097l-4.43507,1.6346l-3.48286,-0.73104l13.48985,-9.8991z" stroke-width="2.5" stroke-linecap="round"/><path d="M240.86575,202.50171c-7.01038,-0.04146 -12.63622,-9.74833 -12.56565,-21.6809c0.07057,-11.93258 5.81082,-21.57224 12.82121,-21.53078c7.01038,0.04146 12.63624,9.74834 12.56566,21.68092c-0.07057,11.93258 -5.81083,21.57224 -12.82122,21.53078z" data-paper-data="{&quot;index&quot;:null}" stroke-width="2.25" stroke-linecap="butt"/><path d="M248.13631,177.79258c-0.04379,-0.97114 0.70797,-1.7939 1.67911,-1.83769c0.97114,-0.04379 1.7939,0.70797 1.83769,1.6791c0.04379,0.97114 -0.70797,1.7939 -1.6791,1.83769c-0.97114,0.04379 -1.79389,-0.70797 -1.83768,-1.67911z" stroke-width="0.5" stroke-linecap="butt"/></g><g><path d="M238.87871,200.70999c-7.01038,-0.04146 -12.63623,-9.74834 -12.56566,-21.68092c0.07057,-11.93258 5.81083,-21.57224 12.82121,-21.53078c7.01038,0.04146 12.63623,9.74834 12.56566,21.68091c-0.07057,11.93258 -5.81083,21.57224 -12.82121,21.53078z" data-paper-data="{&quot;index&quot;:null}" fill="#11ff00" stroke="none" stroke-width="0" stroke-linecap="butt"/><path d="M247.34313,173.25024c-2.04731,-0.01211 -2.52078,-3.04505 -2.52078,-3.04505l-0.6166,-2.05067c-0.88173,-2.85014 -2.53325,-4.02668 -4.82422,-5.76162c0,0 -2.12487,-0.74964 -0.88679,-2.38023c1.23809,-1.63059 2.86868,-0.39252 2.86868,-0.39252c1.91959,1.46175 3.70996,2.8477 4.98782,5.01342c0.57393,0.97268 1.04903,1.81549 1.40882,2.88606l0.82938,2.70783c0,0 0.80102,3.03489 -1.24632,3.02277z" data-paper-data="{&quot;index&quot;:null}" fill="#87ff7e" stroke="none" stroke-width="0.5" stroke-linecap="butt"/><path d="M247.20073,194.33974l-3.14333,3.01097l-4.43507,1.6346l-3.48286,-0.73104l13.48985,-9.8991z" fill="#10f000" stroke="#10f000" stroke-width="2.5" stroke-linecap="round"/><path d="M238.86949,200.50543c-7.01039,-0.04146 -12.63623,-9.74833 -12.56565,-21.6809c0.07057,-11.93258 5.81082,-21.57224 12.82121,-21.53078c7.01038,0.04146 12.63624,9.74834 12.56566,21.68092c-0.07057,11.93258 -5.81083,21.57224 -12.82121,21.53078z" data-paper-data="{&quot;index&quot;:null}" fill="none" stroke="#00bd34" stroke-width="2.25" stroke-linecap="butt"/><path d="M246.14004,175.79632c-0.04379,-0.97114 0.70797,-1.7939 1.6791,-1.83769c0.97114,-0.04379 1.7939,0.70797 1.83769,1.6791c0.04379,0.97114 -0.70797,1.7939 -1.6791,1.83769c-0.97114,0.04379 -1.7939,-0.70797 -1.83769,-1.67911z" fill="#87ff7e" stroke="none" stroke-width="0.5" stroke-linecap="butt"/></g><g><g data-paper-data="{&quot;index&quot;:null}" fill="#000000" stroke="none" stroke-width="0" stroke-linecap="butt"><path d="M243.91916,179.53071c-1.07125,0 -1.93966,-1.30263 -1.93966,-2.90951c0,-1.60688 0.86841,-2.9095 1.93966,-2.9095c1.07126,0 1.93967,1.30261 1.93967,2.9095c0,1.60689 -0.86843,2.90951 -1.93967,2.90951z"/><path d="M235.0087,179.02026c-1.07126,0 -1.93967,-1.30262 -1.93967,-2.9095c0,-1.60689 0.86843,-2.90951 1.93967,-2.90951c1.07125,0 1.93967,1.30263 1.93967,2.90951c0,1.60688 -0.86842,2.9095 -1.93967,2.9095z"/></g><g data-paper-data="{&quot;index&quot;:null}" fill="none" stroke="#000000" stroke-width="1.5" stroke-linecap="round"><path d="M242.55946,170.57048c0,0 1.39043,-0.43751 1.98585,-0.24612c0.64348,0.20683 1.74205,1.44437 1.74205,1.44437"/><path d="M232.6264,171.31311c0,0 1.18567,-1.15436 1.84248,-1.31384c0.60777,-0.14758 1.96269,0.3899 1.96269,0.3899" data-paper-data="{&quot;index&quot;:null}"/></g></g></g></g></svg>