<svg version="1.1" xmlns="http://www.w3.org/2000/svg" xmlns:xlink="http://www.w3.org/1999/xlink" width="63.93582" height="63.51029" viewBox="0,0,63.93582,63.51029"><defs><radialGradient cx="246.63892" cy="192.9166" r="11.25665" gradientUnits="userSpaceOnUse" id="color-1"><stop offset="0" stop-color="#0044ff"/><stop offset="1" stop-color="#1ef5cd"/></radialGradient></defs><g transform="translate(-208.03209,-148.24485)"><g data-paper-data="{&quot;isPaintingLayer&quot;:true}" fill-rule="nonzero" stroke-linecap="butt" stroke-linejoin="miter" stroke-miterlimit="10" stroke-dasharray="" stroke-dashoffset="0" style="mix-blend-mode: normal"><path d="M208.24488,211.75515v-63.51029h63.51029v63.51029z" fill="none" stroke="none" stroke-width="0"/><g><g><path d="M241.56189,185.09609c0,-8.25832 6.6947,-14.95301 14.95301,-14.95301c8.25832,0 14.95301,6.6947 14.95301,14.95301c0,8.25832 -6.6947,14.95301 -14.95301,14.95301c-8.25832,0 -14.95301,-6.6947 -14.95301,-14.95301z" fill="#00f099" stroke="none" stroke-width="0"/><path d="M241.56189,185.09609c0,-8.25832 6.6947,-14.95301 14.95301,-14.95301c8.25832,0 14.95301,6.6947 14.95301,14.95301c0,8.25832 -6.6947,14.95301 -14.95301,14.95301c-8.25832,0 -14.95301,-6.6947 -14.95301,-14.95301z" fill="none" stroke="#3bcc98" stroke-width="1"/><path d="M246.07912,193.06278l-0.01792,-0.01024l-0.00973,-0.03891c-0.10222,-0.19091 -0.16019,-0.40907 -0.16019,-0.64077v-0.13594l0.01274,-0.05099c0.00011,-0.00081 0.00023,-0.00163 0.00034,-0.00244l-0.02041,-0.04084l0.10298,-0.28837l0.07426,-0.29706l0.03999,-0.02285l0.0184,-0.05151l0.21309,-0.31963l0.3634,-0.78737l0.01367,-0.01698l0.00473,-0.02128l0.52589,-1.05176l0.58502,-1.36505l0.53384,-1.40135l0.03193,-0.04579l0.01107,-0.05472l0.67968,-1.42733l0.04458,-0.05409l0.02076,-0.06695l1.15546,-1.90311l0.02961,-0.02931l0.0147,-0.03898l0.57359,-0.82853l0.29297,-0.52736l0.25867,-0.51732l0.07017,-0.08187l0.03952,-0.10032l0.29987,-0.41982l0.23774,-0.41606l0.12562,-0.13109l0.09342,-0.1557l0.25654,-0.25654l0.13409,-0.2514l0.12082,-0.26362l0.05931,-0.07414l0.01309,-0.02454l0.00844,-0.00238l0.1339,-0.16739l0.15686,-0.26144l0.02343,-0.02343l0.01115,-0.03122l0.08899,-0.13349l0.03012,-0.06023l0.0559,-0.06522l0.02889,-0.08089l0.22494,-0.3374l0.09809,-0.19617l0.14221,-0.16592l0.05229,-0.08715l0.0094,-0.01882l0.00628,-0.00732l0.04446,-0.0741l0.01704,-0.01704l0.01703,-0.04765l0.08899,-0.13349l0.03012,-0.06023l0.0559,-0.06522l0.02889,-0.08089l0.22494,-0.3374l0.39472,-0.78945l0.03742,-0.11226l0.37614,-0.59108l0.29622,-0.05925l0.18738,-0.20942l0.42987,0.08597l0.42987,-0.08597l0.18738,0.20942l0.29622,0.05925l0.37614,0.59108l0.0254,0.07621l0.74883,1.31047l0.01047,0.03718l0.02513,0.02933l0.70981,1.4196l0.36087,0.5413l0.0069,0.01933l0.01478,0.01425l0.32925,0.52679l0.23986,0.35979l0.18127,0.24169l0.01498,0.0356l0.02858,0.02599l0.27187,0.40781l0.01116,0.03122l0.02343,0.02343l0.14984,0.24972l0.27256,0.32708l0.06871,0.14232l0.10284,0.12l0.16606,0.33211l0.17553,0.26329l0.41714,0.47673l0.03116,0.06076l0.05198,0.04428l0.33065,0.46291l0.18168,0.24224l0.21157,0.26447l0.35457,0.35457l0.06177,0.10295l0.09066,0.07872l0.44302,0.63287l0.29722,0.35667l0.36769,0.42897l0.7787,0.7787l0.06967,0.11611l0.10019,0.09108l0.1972,0.29581l0.3806,0.3806l0.03939,0.06564l0.06089,0.04639l0.22483,0.28105l0.15066,0.15066l0.05034,0.0839l0.07594,0.0617l0.06191,0.08254l0.01831,0.00102l0.22886,0.26701l0.07164,0.0788l0.10472,0.10472l0.01848,0.0308l0.04172,0.04588l-0.00144,0.02079l0.00138,0.00276l0.04181,0.06968l0.16992,0.16992l0.0861,0.1435l0.11833,0.11833l0.1178,0.19634l0.22151,0.22151l0.11243,0.18738l0.14221,0.16592l0.03012,0.06023l0.08899,0.13349l0.02889,0.08089l0.0559,0.06522l0.06797,0.13594l0.03108,0.13988l0.04267,0.03818l-0.0162,0.08097l0.09443,0.4249l-0.25628,0.38442l-0.09061,0.45305l-0.36721,0.23368l-0.0458,0.06869l-0.05716,-0.00318l-0.12089,0.07693l-0.2039,0.06797l-0.1232,0.00948l-0.11443,0.04662l-0.47577,0.06797l-0.02928,-0.00303l-0.0277,0.00995l-0.67968,0.06797l-0.0683,-0.00999l-0.06696,0.01675h-0.3764l-0.3814,0.09534h-0.10016l-0.09427,0.03383l-1.31507,0.13151l-0.7717,0.12862l-0.04537,-0.00363l-0.04284,0.01538l-1.35194,0.13519l-0.58319,0.0648l-0.93053,0.13293l-0.0122,-0.00126l-0.01144,0.00444l-0.4623,0.05779l-0.19223,0.04806h-0.16734l-0.16235,0.04059h-0.29531l-0.29683,0.04947l-0.11325,-0.00906l-0.11022,0.02755h-0.63515l-0.29683,0.04947l-0.11325,-0.00906l-0.11022,0.02755h-0.37917l-0.38015,0.0543l-0.09732,-0.01007l-0.09492,0.02373h-0.36328l-0.29683,0.04947l-0.11325,-0.00906l-0.11022,0.02755h-0.1725l-0.10953,0.02738h-0.16734l-0.16235,0.04059h-0.10453l-0.10953,0.02738h-0.09269l-0.08689,0.03227l-0.61171,0.06797l-0.07586,-0.01025l-0.07426,0.01857h-0.12862l-0.53689,0.05965l-0.07586,-0.01025l-0.07426,0.01857h-2.31092l-0.27187,0.06797h-0.03787l-0.03812,0.00846l-0.01271,-0.00846h-0.79611l-0.19461,0.01497l-0.21199,0.053h-0.81562l-0.67968,-0.16992l-0.09978,-0.17461c-0.30929,-0.10564 -0.56835,-0.31968 -0.7319,-0.59678zM252.205,191.14943l0.53689,-0.05965l0.07586,0.01025l0.07426,-0.01857h0.12862l0.44601,-0.04956l0.18317,-0.04579h0.16735l0.16235,-0.04059h0.10452l0.10953,-0.02738h0.16735l0.16235,-0.04059h0.22733l0.29683,-0.04947l0.11325,0.00906l0.11023,-0.02755h0.37917l0.38015,-0.0543l0.09732,0.01007l0.09492,-0.02373h0.36328l0.29683,-0.04947l0.11325,0.00906l0.11023,-0.02755h0.63515l0.29683,-0.04947l0.11325,0.00906l0.11023,-0.02755h0.24046l0.10953,-0.02738h0.08336l0.07774,-0.03009l0.53192,-0.06649l0.93975,-0.13426l0.02168,0.00224l0.02044,-0.00759l0.61171,-0.06797l0.00762,0.00103l0.00724,-0.0026l1.31506,-0.13151l0.7717,-0.12862l0.04537,0.00363l0.04284,-0.01538l1.26092,-0.1261l0.15435,-0.03859l-0.05658,-0.04597l-0.14594,-0.19459l-0.13559,-0.13559l-0.03938,-0.06564l-0.06089,-0.04639l-0.22483,-0.28105l-0.42255,-0.42255l-0.06966,-0.11611l-0.10019,-0.09108l-0.1972,-0.29581l-0.72044,-0.72043l-0.02742,-0.0457l-0.04346,-0.03086l-0.40781,-0.47577l-0.00435,-0.00868l-0.00784,-0.00573l-0.33984,-0.40781l-0.02533,-0.05249l-0.04401,-0.03821l-0.40752,-0.58217l-0.32365,-0.32364l-0.03938,-0.06564l-0.06089,-0.04639l-0.27187,-0.33984l-0.00909,-0.01982l-0.01692,-0.01375l-0.2039,-0.27187l-0.0063,-0.01497l-0.01237,-0.01053l-0.30086,-0.42121l-0.43161,-0.49328l-0.04121,-0.08036l-0.06682,-0.06075l-0.27187,-0.40781l-0.02889,-0.0809l-0.0559,-0.06522l-0.13334,-0.2667l-0.23884,-0.2866l-0.0462,-0.09572l-0.07516,-0.07514l-0.18726,-0.31211l-0.233,-0.34949l-0.18126,-0.24168l-0.01499,-0.0356l-0.02858,-0.02598l-0.27187,-0.40781l-0.0069,-0.01933l-0.01478,-0.01426l-0.32925,-0.52679l-0.39672,-0.59508l-0.02889,-0.0809l-0.0559,-0.06522l-0.44644,-0.89289l-0.03507,0.05845l-0.07739,0.15476l-0.0559,0.06522l-0.0289,0.0809l-0.22492,0.33739l-0.03012,0.06024l-0.0559,0.06522l-0.0289,0.0809l-0.118,0.17699l-0.18726,0.31211l-0.06554,0.06554l-0.03862,0.08425l-0.10009,0.12512l-0.10921,0.20477l-0.10452,0.24826l-0.09649,0.12864l-0.00192,0.00361l-0.00098,0.00028l-0.10451,0.13935l-0.07594,0.0617l-0.05034,0.08389l-0.21112,0.21112l-0.18155,0.31772l-0.04844,0.05055l-0.02566,0.06513l-0.27785,0.38898l-0.22418,0.44836l-0.0197,0.02299l-0.00784,0.02925l-0.33984,0.61171l-0.04658,0.0498l-0.02406,0.06381l-0.58853,0.8501l-1.09859,1.80943l-0.62656,1.31576l-0.52427,1.37621l-0.01632,0.0234l-0.00455,0.02815l-0.61171,1.42733l-0.02474,0.03254l-0.00887,0.03991l-0.37572,0.75144h0.24735l0.27187,-0.06797h0.03787l0.03812,-0.00848l0.01271,0.00848z" fill="url(#color-1)" stroke="none" stroke-width="0.5"/></g><g><path d="M223.51487,170.06192c0,-8.25832 6.6947,-14.95301 14.95301,-14.95301c8.25832,0 14.95301,6.6947 14.95301,14.95301c0,8.25832 -6.6947,14.95301 -14.95301,14.95301c-8.25832,0 -14.95301,-6.6947 -14.95301,-14.95301z" fill="#29ff29" stroke="none" stroke-width="0"/><path d="M223.51487,170.06192c0,-8.25832 6.6947,-14.95301 14.95301,-14.95301c8.25832,0 14.95301,6.6947 14.95301,14.95301c0,8.25832 -6.6947,14.95301 -14.95301,14.95301c-8.25832,0 -14.95301,-6.6947 -14.95301,-14.95301z" fill="none" stroke="#47cc3b" stroke-width="1"/><path d="M231.65498,178.66591l-0.01792,-0.01024l-0.00973,-0.03891c-0.10222,-0.19091 -0.16019,-0.40907 -0.16019,-0.64077v-0.21742l-0.08363,-0.29273l-0.00261,-0.07821l-0.0312,-0.07176l-0.13594,-0.81562l0.00129,-0.01619l-0.00613,-0.01505l-0.06797,-0.47577l0.01007,-0.09732l-0.02373,-0.09492v-7.34057l0.01399,-0.05595l-0.0093,-0.05693l0.06797,-0.81562l0.00372,-0.01094l-0.00167,-0.01144l0.06797,-0.67968l0.02288,-0.06372l-0.00321,-0.06762l0.13594,-0.67968l0.02403,-0.05074l0.00187,-0.05611l0.10713,-0.37498l0.05497,-0.43971l0.02359,-0.06094l-0.00172,-0.06533l0.13594,-0.61171l0.00823,-0.01643v-0.01838l0.13594,-0.54374l0.04401,-0.08251l0.01264,-0.09265l0.13594,-0.33984l0.03378,-0.04677l0.01251,-0.0563l0.265,-0.53001l0.09963,-0.44836l0.01502,-0.03003l-0.00969,-0.03554l0.16477,-0.27462l0.14322,-0.28645l0.03519,-0.01091l0.01728,-0.02879l0.17669,-0.1767l0.15027,-0.22539l0.09809,-0.19617l0.14221,-0.16592l0.11243,-0.18738l0.22151,-0.22151l0.07733,-0.12888l-0.00064,-0.01649l0.02791,-0.02894l0.01322,-0.02203l0.22465,-0.22465l0.22053,-0.2287l0.02178,-0.01361l0.02844,-0.02844l0.0165,0.00035l0.47703,-0.29815l0.02616,-0.00849l0.01986,-0.01903l0.47577,-0.27187l0.15844,-0.04456l0.14255,-0.08224l0.40892,-0.11683l0.27529,-0.11011l0.07011,-0.00956l0.06129,-0.03536l0.47577,-0.13594l0.10597,-0.00353l0.09887,-0.03828l0.53192,-0.06649l0.46397,-0.06628l0.09732,0.01007l0.09492,-0.02373h1.97108l0.21199,0.053l0.11617,0.00894l0.00365,-0.00243l0.0187,0.00416l0.05608,0.00431h0.00121l0.00054,0.00014l0.02152,0.00166l0.0447,0.0149l0.23626,0.05907l0.30491,0.06777l0.03388,0.01694l0.03787,0.00947l0.00757,0.01326l0.05661,0.0283l0.08426,0.07224l0.06771,0.00377l0.17536,0.20459l0.05941,0.05091l0.05842,0.02678l0.22739,0.18192l0.00713,0.00356l0.03743,0.03208l0.0679,0.05432l0.00852,0.01118l0.00614,0.00527l0.14232,0.06871l0.39737,0.33114l0.32923,0.26339l0.00848,0.01111l0.01258,0.00608l0.29282,0.24401l0.00466,0.00026l0.01087,0.01267l0.09947,0.0829l0.1482,0.20279l0.32759,0.27299l0.22862,0.31286l0.09058,0.05176l0.02743,0.10972l0.06674,0.09133l-0.01035,0.05839l0.17275,0.24185l0.0203,0.05155l0.03917,0.03917l0.40781,0.67968l0.01552,0.051l0.03468,0.04047l0.38446,0.76892l0.17704,0.29508l0.0495,0.16265l0.08689,0.14613l0.2039,0.67968l0.00303,0.06511l0.0279,0.05891l0.06797,0.33984l-0.00241,0.05067l0.01831,0.04731l0.06649,0.53192l0.13426,0.93975l-0.01007,0.09732l0.02373,0.09492v0.45912l0.05747,0.45977l-0.01034,0.08527l0.02083,0.08334v5.09761l-0.02373,0.09492l0.01007,0.09732l-0.06797,0.47577l-0.03242,0.07955l-0.00182,0.08588l-0.17849,0.65445l-0.05599,0.44788l-0.05785,0.14946l-0.01819,0.15923l-0.20151,0.53738l-0.26955,0.74126l-0.04444,0.06583l-0.01722,0.07754l-0.47577,0.95156l-0.03972,0.04634l-0.01842,0.05818l-0.52318,0.85017l-0.45718,0.84904l-0.0439,0.04818l-0.02193,0.06139l-0.27187,0.40781l-0.10019,0.09108l-0.02659,0.04432l-0.00035,0.0064l-0.00717,0.00614l-0.03553,0.05922l-0.13594,0.13594l-0.16992,0.10195l-0.23789,0.23789l-0.18738,0.11243l-0.16592,0.14221l-0.81562,0.40781l-0.14615,0.03247l-0.13209,0.07045l-1.06552,0.26637l-0.454,0.12971l-0.1895,0.00631l-0.18394,0.04599h-3.17378l-0.01271,0.00848l-0.03812,-0.00848h-0.03787l-0.30302,-0.07576l-0.30491,-0.06776l-0.03388,-0.01694l-0.03787,-0.00947l-0.00757,-0.01326l-0.05661,-0.0283l-0.06522,-0.0559l-0.08089,-0.02889l-0.00799,-0.00532l-0.04344,-0.01086l-0.20526,-0.10948l-0.21909,-0.07825l-0.05243,-0.03495l-0.03121,-0.0104l-0.05945,-0.03784l-0.00707,0.00193l-0.03458,-0.02075l-0.07694,-0.0171l-0.13594,-0.06797l-0.06019,-0.05159l-0.114,-0.0684l-0.16945,-0.04236l-0.05156,-0.09025l-0.22996,-0.13798l-0.02989,-0.02989l-0.03887,-0.01636l-0.26142,-0.06536l-0.03365,-0.05888l-0.10229,-0.04307l-0.0954,-0.07155l-0.19854,-0.06618l-0.05945,-0.03784l-0.00707,0.00193l-0.03458,-0.02075l-0.07694,-0.0171l-0.13594,-0.06797l-0.16592,-0.14221l-0.18738,-0.11243l-0.13594,-0.13594l-0.03553,-0.05922l-0.00717,-0.00614l-0.00035,-0.0064l-0.31739,-0.52899l0.02971,-0.10894c-0.17272,-0.11408 -0.31787,-0.26652 -0.4233,-0.44518zM235.74914,178.55372l0.05156,0.09025l0.08748,0.05249l0.08691,0.02897l0.15317,0.09748l0.171,0.06107l0.00799,0.00532l0.04344,0.01086l0.20526,0.10948l0.15076,0.05384h2.72621l0.29271,-0.08363l0.02323,-0.00078l0.02051,-0.01094l0.94272,-0.23569l0.48485,-0.24242l0.11589,-0.11589l0.16992,-0.10195l0.00677,-0.00678l0.16172,-0.24258l0.44545,-0.82726l0.02704,-0.02968l0.01213,-0.03828l0.51238,-0.83261l0.41405,-0.82811l0.24516,-0.67419l0.00392,-0.00579l0.00079,-0.00696l0.1477,-0.39388l0.04811,-0.38492l0.03533,-0.09125l0.00208,-0.09782l0.18164,-0.666l0.04234,-0.29636v-4.91638l-0.05747,-0.45976l0.01034,-0.08527l-0.02083,-0.08334v-0.44713l-0.12227,-0.85592l0.00126,-0.0122l-0.00442,-0.01144l-0.0618,-0.49447l-0.04568,-0.2284l-0.13664,-0.45548l-0.11639,-0.19399l-0.01552,-0.051l-0.03468,-0.04047l-0.38446,-0.76892l-0.35302,-0.58836l-0.30828,-0.43161l-0.03194,-0.0811l-0.05134,-0.02934l-0.01179,-0.04715l-0.07682,-0.06401l-0.1482,-0.20279l-0.31714,-0.26429l-0.32923,-0.26339l-0.00848,-0.01112l-0.01258,-0.00608l-0.4028,-0.33567l-0.11989,-0.05495l-0.22739,-0.18192l-0.00713,-0.00356l-0.03743,-0.03208l-0.05044,-0.04035l-0.06412,-0.00356l-0.04421,-0.05157l-0.01029,-0.00079h-1.67178l-0.38015,0.0543l-0.0122,-0.00126l-0.01144,0.00442l-0.43971,0.05497l-0.30811,0.08803l-0.27529,0.11011l-0.07011,0.00956l-0.06129,0.03536l-0.31761,0.09075l-0.30966,0.17696l-0.24393,0.15245l-0.03579,0.05967l-0.11833,0.11833l-0.0861,0.1435l-0.18386,0.18386l-0.03728,0.07457l-0.0559,0.06522l-0.02889,0.08089l-0.27187,0.40781l-0.10019,0.09108l-0.05973,0.09956l-0.05196,0.2338l-0.07484,0.14968l-0.0363,0.16336l-0.31455,0.62911l-0.08067,0.20168l-0.10923,0.43689l-0.11814,0.53164l-0.06002,0.4801l-0.03828,0.09887l-0.00353,0.10597l-0.12082,0.42287l-0.11211,0.56055l-0.06023,0.60236l-0.06234,0.74809v7.18742l0.05207,0.3645l0.12069,0.72409l0.11478,0.40175l0.00631,0.1895l0.04599,0.18394v0.24283l0.00311,0.00187l0.29081,0.09694l0.18435,0.11732l0.20139,0.0848l0.05887,0.04415l0.14124,0.03139l0.03388,0.01694l0.03787,0.00947l0.00757,0.01326l0.05661,0.0283l0.06522,0.0559l0.08089,0.02889l0.2039,0.13594l0.03314,0.03647z" fill="#13e200" stroke="none" stroke-width="0.5"/></g><g><path d="M208.53209,189.93808c0,-8.25832 6.6947,-14.95301 14.95301,-14.95301c8.25832,0 14.95301,6.6947 14.95301,14.95301c0,8.25832 -6.6947,14.95301 -14.95301,14.95301c-8.25832,0 -14.95301,-6.6947 -14.95301,-14.95301z" fill="#ff9900" stroke="none" stroke-width="0"/><path d="M208.53209,189.93808c0,-8.25832 6.6947,-14.95301 14.95301,-14.95301c8.25832,0 14.95301,6.6947 14.95301,14.95301c0,8.25832 -6.6947,14.95301 -14.95301,14.95301c-8.25832,0 -14.95301,-6.6947 -14.95301,-14.95301z" fill="none" stroke="#cc883b" stroke-width="1"/><path d="M212.9652,196.93554c0,-0.17292 0.02814,-0.3388 0.0798,-0.49267l0.06764,-0.21735l0.09748,-0.16407l0.06107,-0.18315l0.26377,-0.42378l0.29404,-0.62989l0.12064,-0.45229l0.04369,-0.08111l0.01392,-0.09245l0.6991,-1.7472l0.02474,-0.03486l0.00887,-0.04274l0.61321,-1.3136l0.53477,-1.22739l0.46486,-1.07881l0.00186,-0.00247l0.00055,-0.0031l0.51069,-1.17214l0.28599,-0.91897l0.05254,-0.08842l0.02123,-0.1023l0.31072,-0.6656l0.02514,-0.03141l0.01046,-0.03982l0.31072,-0.5824l0.09997,-0.11173l0.08395,-0.31469l0.0636,-0.11807l0.02761,-0.13307l0.07768,-0.1664l0.0559,-0.06986l0.02889,-0.08664l0.26377,-0.42378l0.05077,-0.10876l0.04149,-0.17774l0.07045,-0.14149l0.03247,-0.15652l0.11216,-0.24025l0.12481,-0.40104l0.05254,-0.08842l0.02123,-0.1023l0.03448,-0.07385l0.04713,-0.15143l0.05254,-0.08842l0.02123,-0.1023l0.15536,-0.3328l0.01234,-0.01542l-0.00783,-0.01678l0.10298,-0.30886l0.07426,-0.31817l0.03999,-0.02447l0.0184,-0.05517l0.05437,-0.08737l0.02012,-0.06462l0.05254,-0.08842l0.02123,-0.1023l0.15536,-0.3328l0.15766,-0.19701l0.01391,-0.08397l0.07831,-0.03128l0.20607,-0.25751l0.51548,-0.03068l0.48374,-0.19321l0.28516,0.14745l0.08345,-0.00497l0.04416,0.07096l0.21816,0.1128l0.46606,0.41599l0.03708,0.05435l0.05389,0.03464l0.99231,1.06285l0.12104,0.08643l0.04969,0.05855l0.06651,0.0344l0.46606,0.41599l0.03708,0.05435l0.05389,0.03464l0.44079,0.47213l0.7502,0.72319l0.02046,0.03252l0.03139,0.02018l0.77678,0.832l0.03234,0.05772l0.05074,0.03972l0.34892,0.44846l0.11176,0.1197l0.03939,0.0703l0.06089,0.04969l0.26368,0.35304l0.25748,0.27578l0.03939,0.0703l0.06089,0.04969l0.26368,0.35304l0.56818,0.60858l0.05845,0.10435l0.08649,0.07891l0.32299,0.48434l0.0758,0.08119l0.03939,0.0703l0.06089,0.04969l0.31072,0.41599l0.06025,0.14081l0.09411,0.11761l0.0567,0.12147l0.2324,0.24892l0.03234,0.05772l0.05074,0.03972l0.34892,0.44846l0.34479,0.3693l0.05034,0.08987l0.07594,0.06609l0.11652,0.1664l0.15536,0.1248l0.14514,0.19133l0.17031,0.16583l0.26518,0.42604l0.41264,0.51565l0.02025,0.04337l0.03513,0.03059l0.45332,0.6474l0.29744,0.39824l0.00924,0.0216l0.17525,0.219l0.20459,0.18783l0.00377,0.07253l0.07224,0.09026l0.03983,0.08533l0.07569,0.12161l0.27386,0.36666l0.02506,0.05857l0.04451,0.04334l0.15536,0.2496l0.02242,0.06722l0.04078,0.04368l0.00397,0.00709l0.0239,0.0072l0.15888,0.31908l0.1737,0.31009l-0.00265,0.01038l0.00149,0.0013l0.23304,0.3328l0.04794,0.12198l0.08042,0.10048l0.07768,0.1664l0.05943,0.28646l0.0064,0.01628l-0.00199,0.00494l0.08815,0.42484l-0.20725,0.33296l-0.02072,0.39956l-0.53193,0.48836l-0.07603,0.04071l-0.00757,0.0142l-0.03787,0.01014l-0.03388,0.01815l-0.3049,0.07258l-0.30302,0.08114h-0.03787l-0.03811,0.00907l-0.01271,-0.00907h-0.6128l-0.61502,0.0732l-0.61219,0.08197l-0.08527,-0.01107l-0.08334,0.02231h-0.25379l-0.25639,0.05492l-0.13524,-0.0069l-0.13135,0.03518h-5.05895l-0.62874,0.06735l-0.62005,0.14758l-0.14966,-0.00422l-0.14523,0.03889h-1.31357l-0.52562,0.07037l-0.53194,0.08139l-0.03548,-0.00393l-0.03369,0.01258l-0.80402,0.07829l-0.41611,0.07428l-0.11325,-0.00971l-0.11022,0.02951h-0.29872l-0.45907,0.12293h-0.16734l-0.16235,0.04347h-1.09993l-0.02376,0.00849l-0.21788,0.01795l-0.21199,0.05677h-0.12053l-0.3551,0.06339l-0.11325,-0.00971l-0.11022,0.02951h-0.77582l-0.00866,0.00206l-0.30302,0.08114h-0.03787l-0.03811,0.00907l-0.01271,-0.00907h-0.09041l-0.01245,0.00849l-0.23304,0.0832l-0.21788,0.01795l-0.21199,0.05677h-0.31072l-0.67968,-0.18201l-0.27202,-0.50987c-0.26784,-0.2077 -0.46218,-0.51745 -0.53332,-0.87599l-0.01368,-0.01637l0.00309,-0.04305c-0.01257,-0.07956 -0.01912,-0.16132 -0.01912,-0.24472zM217.19865,195.56274h0.01244l0.02376,-0.00849l0.21788,-0.01795l0.21199,-0.05677h1.15318l0.45907,-0.12293h0.16734l0.16235,-0.04347h0.35357l0.3551,-0.06339l0.05156,0.00442l0.04885,-0.01825l0.81977,-0.07982l0.50927,-0.07793l0.0122,0.00136l0.01144,-0.00474l0.62142,-0.0832l0.08527,0.01107l0.08334,-0.02231h1.24899l0.55344,-0.13173l0.08222,0.00232l0.07741,-0.02976l0.77678,-0.0832l0.0683,0.0107l0.06696,-0.01793h4.99215l0.25639,-0.05492l0.13524,0.0069l0.13135,-0.03518h0.2564l-0.14462,-0.23236l-0.01023,-0.03069l-0.2316,-0.21264l-0.00115,-0.02228l-0.11268,-0.18103l-0.27386,-0.36666l-0.00909,-0.02123l-0.01692,-0.01472l-0.4395,-0.62766l-0.43726,-0.54639l-0.03728,-0.07985l-0.06168,-0.06006l-0.18155,-0.29168l-0.12443,-0.09996l-0.12188,-0.16067l-0.15,-0.13053l-0.17507,-0.25002l-0.32007,-0.34283l-0.03234,-0.05772l-0.05074,-0.03972l-0.34892,-0.44846l-0.34479,-0.3693l-0.11243,-0.2007l-0.14221,-0.17771l-0.09095,-0.19484l-0.17371,-0.23259l-0.10212,-0.10938l-0.05845,-0.10435l-0.08649,-0.07891l-0.32299,-0.48434l-0.54187,-0.58039l-0.03939,-0.0703l-0.06089,-0.04969l-0.26368,-0.35304l-0.25748,-0.27578l-0.03939,-0.0703l-0.06089,-0.04969l-0.26368,-0.35304l-0.10212,-0.10938l-0.03234,-0.05772l-0.05074,-0.03972l-0.34892,-0.44846l-0.70791,-0.75822l-0.7502,-0.72319l-0.02046,-0.03252l-0.03139,-0.02018l-0.42247,-0.4525l-0.36291,-0.32392l-0.17261,-0.12326l-0.09108,-0.10731l-0.11611,-0.07461l-0.10419,-0.11159l-0.02786,0.04689l-0.02123,0.1023l-0.03448,0.07385l-0.12481,0.40104l-0.05254,0.08842l-0.02123,0.1023l-0.08862,0.18985l-0.04149,0.17774l-0.07045,0.14149l-0.03247,0.15652l-0.15536,0.3328l-0.0559,0.06986l-0.02889,0.08664l-0.25127,0.40368l-0.10719,0.40185l0.00532,0.0209l-0.18502,0.33028l-0.1797,0.33363l-0.01964,0.00517l-0.00273,0.00292l-0.20167,0.37802l-0.25063,0.5369l-0.28015,0.90024l-0.04265,0.07177l-0.01513,0.08352l-0.54253,1.24522l-0.46486,1.07881l-0.00186,0.00247l-0.00055,0.0031l-0.54374,1.24801l-0.01188,0.01569l-0.0041,0.01972l-0.60356,1.29293l-0.64943,1.62305l-0.10266,0.38488h0.18265l0.3551,-0.06339l0.11325,0.00971z" fill="#ff7a00" stroke="none" stroke-width="0.5"/></g></g></g></g></svg>