<svg version="1.1" xmlns="http://www.w3.org/2000/svg" xmlns:xlink="http://www.w3.org/1999/xlink" width="63.31044" height="63.31044" viewBox="0,0,63.31044,63.31044"><defs><radialGradient cx="240" cy="180" r="29.90522" gradientUnits="userSpaceOnUse" id="color-1"><stop offset="0" stop-color="#dae5f5"/><stop offset="1" stop-color="#5c93e6"/></radialGradient></defs><g transform="translate(-208.34478,-148.34478)"><g data-paper-data="{&quot;isPaintingLayer&quot;:true}" fill-rule="nonzero" stroke-linejoin="miter" stroke-miterlimit="10" stroke-dasharray="" stroke-dashoffset="0" style="mix-blend-mode: normal"><path d="M210.09478,209.90522v-59.81044h59.81044v59.81044z" fill="url(#color-1)" stroke="#ffffff" stroke-width="3.5" stroke-linecap="butt"/><g fill="none" stroke-linecap="round"><path d="M239.09592,180.40941l11.125,-0.875l1.5,11.375c0,0 -12.28781,8.62526 -18.75,1.375c-6.46219,-7.25026 -5.45249,-18.43378 -1.75,-24.375c3.7025,-5.94121 17.875,-1.5 17.875,-1.5" stroke="#000000" stroke-width="11"/><path d="M239.09592,180.40941l11.125,-0.875l1.5,11.375c0,0 -12.28781,8.62526 -18.75,1.375c-6.46219,-7.25026 -5.45249,-18.43378 -1.75,-24.375c3.7025,-5.94121 17.875,-1.5 17.875,-1.5" stroke="#5c93e6" stroke-width="7.5"/><path d="M239.09592,180.40941l11.125,-0.875l1.5,11.375c0,0 -12.28781,8.62526 -18.75,1.375c-6.46219,-7.25026 -5.45249,-18.43378 -1.75,-24.375c3.7025,-5.94121 17.875,-1.5 17.875,-1.5" stroke="#66a2ff" stroke-width="4.5"/></g></g></g></svg>