<svg version="1.1" xmlns="http://www.w3.org/2000/svg" xmlns:xlink="http://www.w3.org/1999/xlink" width="47.71536" height="47.71536" viewBox="0,0,47.71536,47.71536"><defs><linearGradient x1="240" y1="157.53514" x2="240" y2="202.46487" gradientUnits="userSpaceOnUse" id="color-1"><stop offset="0" stop-color="#6c38ff"/><stop offset="1" stop-color="#812bff"/></linearGradient></defs><g transform="translate(-216.14232,-156.14232)"><g data-paper-data="{&quot;isPaintingLayer&quot;:true}" fill-rule="nonzero" stroke-linejoin="miter" stroke-miterlimit="10" stroke-dasharray="" stroke-dashoffset="0" style="mix-blend-mode: normal"><path d="M216.14232,203.85768v-47.71536h47.71536v47.71536z" fill="none" stroke="none" stroke-width="NaN" stroke-linecap="butt"/><g><path d="M217.53514,202.46487v-44.92972h44.92972v44.92972z" fill="url(#color-1)" stroke="#5a00ff" stroke-width="2.5" stroke-linecap="butt"/><path d="M219.77121,168.93852v-2.13951c0.0687,-1.23079 -0.36146,-2.5981 0.20609,-3.69237c2.53485,-4.88724 8.5514,-2.96741 12.87409,-2.96929c0,0 2.38264,0 2.38264,2.38264c0,2.38264 -2.38264,2.38263 -2.38264,2.38263c-2.93798,-0.00122 -8.79183,-2.16151 -8.31491,1.8964v2.13951c0,0 0,2.38264 -2.38264,2.38264c-2.38264,0 -2.38264,-2.38264 -2.38264,-2.38264z" fill="#8356ff" stroke="none" stroke-width="0.5" stroke-linecap="butt"/><path d="M239.65893,164.90262c-1.3159,0 -2.38263,-1.06674 -2.38263,-2.38263c0,-1.3159 1.06674,-2.38264 2.38263,-2.38264c1.3159,0 2.38264,1.06674 2.38264,2.38264c0,1.3159 -1.06674,2.38263 -2.38264,2.38263z" fill="#8356ff" stroke="none" stroke-width="0.5" stroke-linecap="butt"/><path d="M249.04886,197.53016c0,-2.38264 2.38264,-2.38263 2.38264,-2.38263l1.5827,0.0277c2.41099,-0.18208 2.70194,-0.29974 2.26473,-2.72684c0,0 -0.16975,-2.37657 2.20683,-2.54635c2.37657,-0.16975 2.54635,2.20683 2.54635,2.20683c0.0951,5.02681 -1.3355,6.80553 -6.29331,7.77621l-2.30731,0.02771c0,0 -2.38264,0 -2.38264,-2.38264z" fill="#8356ff" stroke="none" stroke-width="0.5" stroke-linecap="butt"/><g><path d="M219.67922,163.32231l3.11201,-2.72301l3.89002,-0.389" fill="none" stroke="#000000" stroke-width="3" stroke-linecap="round"/><path d="M251.33118,159.03823l3.89687,-0.31314l3.54893,2.12239" data-paper-data="{&quot;index&quot;:null}" fill="none" stroke="#000000" stroke-width="3" stroke-linecap="round"/><path d="M226.973,184.23116c-2.95404,0 -5.34878,-4.44113 -5.34878,-9.91954c0,-5.4784 2.39473,-9.91954 5.34878,-9.91954c2.95405,0 5.34878,4.44113 5.34878,9.91954c0,5.4784 -2.39473,9.91954 -5.34878,9.91954z" fill="#000000" stroke="none" stroke-width="0" stroke-linecap="butt"/><path d="M253.03612,182.79671c-2.95404,0 -5.34877,-4.44114 -5.34877,-9.91955c0,-5.47842 2.39473,-9.91954 5.34877,-9.91954c2.95405,0 5.34878,4.44112 5.34878,9.91954c0,5.47842 -2.39473,9.91955 -5.34878,9.91955z" fill="#000000" stroke="none" stroke-width="0" stroke-linecap="butt"/><path d="M243.26245,190.62538l-4.47352,-0.97252" fill="none" stroke="#000000" stroke-width="3" stroke-linecap="round"/><path d="M231.66174,184.94558c0,1.02113 -1.02113,1.02113 -1.02113,1.02113h-1.70188c-2.05657,0 -3.97628,-0.25826 -5.93912,-0.90334c0,0 -0.96873,-0.32291 -0.64582,-1.29164c0.32291,-0.96873 1.29165,-0.64582 1.29165,-0.64582c1.74931,0.59302 3.46197,0.79855 5.29331,0.79855h1.70188c0,0 1.02113,0 1.02113,1.02113z" fill="#000000" stroke="none" stroke-width="0.5" stroke-linecap="butt"/><path d="M249.71992,182.33737h1.70188c1.83134,0 3.544,-0.20553 5.29331,-0.79855c0,0 0.96873,-0.32291 1.29165,0.64582c0.32291,0.96873 -0.64582,1.29164 -0.64582,1.29164c-1.96285,0.64508 -3.88254,0.90334 -5.93913,0.90334h-1.70188c0,0 -1.02113,0 -1.02113,-1.02113c0,-1.02113 1.02113,-1.02113 1.02113,-1.02113z" data-paper-data="{&quot;index&quot;:null}" fill="#000000" stroke="none" stroke-width="0.5" stroke-linecap="butt"/></g></g></g></g></svg>