<svg version="1.1" xmlns="http://www.w3.org/2000/svg" xmlns:xlink="http://www.w3.org/1999/xlink" width="63.06044" height="65.33691" viewBox="0,0,63.06044,65.33691"><g transform="translate(-208.46998,-148.28125)"><g data-paper-data="{&quot;isPaintingLayer&quot;:true}" fill-rule="nonzero" stroke-linecap="butt" stroke-linejoin="miter" stroke-miterlimit="10" stroke-dasharray="" stroke-dashoffset="0" style="mix-blend-mode: normal"><g fill="#000000" stroke="#000000" stroke-width="2.5"><path d="M225.2117,151.43066h33.37542l-16.68771,42.26641z"/><path d="M241.89941,212.36816c-2.71958,0 -4.92424,-2.20466 -4.92424,-4.92424c0,-2.71958 2.20466,-4.92424 4.92424,-4.92424c2.71958,0 4.92424,2.20466 4.92424,4.92424c0,2.71958 -2.20466,4.92424 -4.92424,4.92424z"/></g><path d="M208.46998,211.53026v-63.06044h63.06044v63.06044z" fill="none" stroke="none" stroke-width="0"/><g fill="#ff1919" stroke="#ff0000" stroke-width="2.5"><path d="M223.31229,149.53125h33.37542l-16.68771,42.26641z"/><path d="M240,210.46875c-2.71958,0 -4.92424,-2.20466 -4.92424,-4.92424c0,-2.71958 2.20466,-4.92424 4.92424,-4.92424c2.71958,0 4.92424,2.20466 4.92424,4.92424c0,2.71958 -2.20466,4.92424 -4.92424,4.92424z"/></g></g></g></svg>